<svg width="217" height="48" viewBox="0 0 217 48" fill="none" xmlns="http://www.w3.org/2000/svg">
<g clip-path="url(#clip0_1604_3265)">
<path d="M5.71257 1.97461H1.3125V27.5166H18.8948V25.8607H5.71257V1.97461Z" fill="#1D5242"/>
<path d="M56.1621 18.2622C56.1699 19.3113 55.9794 20.3528 55.5995 21.3342C54.8686 23.2448 53.3571 24.7727 51.4263 25.5531C49.2608 26.3868 46.8518 26.3868 44.6863 25.5531C42.7455 24.7744 41.2208 23.2478 40.4733 21.3342C40.0874 20.3541 39.8933 19.3122 39.9007 18.2622V1.67676H35.5002V18.147C35.4919 19.4338 35.7363 20.71 36.2206 21.9072C36.6927 23.0711 37.42 24.1203 38.352 24.9805C39.3609 25.894 40.549 26.5984 41.8446 27.0511C43.3802 27.5823 45.001 27.84 46.6302 27.8118C48.3984 27.8507 50.1604 27.5934 51.8394 27.0511C53.1625 26.6163 54.3769 25.9136 55.4028 24.9894C56.3146 24.1459 57.0131 23.1078 57.4446 21.9563C57.8839 20.7705 58.1042 19.5183 58.0955 18.2575V1.67718H56.1616V18.2626L56.1621 18.2622Z" fill="#1D5242"/>
<path d="M127.564 1.68652L114.953 27.8063H117.163L121.287 19.2925H132.516L136.496 27.8063H140.978L128.662 1.68652H127.563H127.564ZM122.054 17.6366L126.949 7.52334L131.7 17.6366H122.054Z" fill="#1D5242"/>
<path d="M173 14.1813C173.748 13.8071 174.431 13.3198 175.023 12.7374C175.571 12.1938 176.013 11.5564 176.326 10.8575C176.637 10.1527 176.795 9.39192 176.789 8.62392C176.798 7.70146 176.592 6.78882 176.186 5.95554C175.771 5.12397 175.159 4.40119 174.4 3.8461C173.512 3.20866 172.507 2.74103 171.441 2.46754C170.095 2.12023 168.708 1.95511 167.316 1.97644H158.238V27.518H162.64V15.5184H165.722L174.819 27.518H179.931L170.399 15.1327C171.302 14.9181 172.175 14.5985 173 14.1813ZM167.917 13.8455C167.032 14.1096 166.111 14.2393 165.185 14.2303H162.64V3.57687H166.506C167.265 3.56919 168.018 3.70017 168.727 3.963C169.378 4.20364 169.975 4.56631 170.484 5.03095C170.982 5.49389 171.372 6.05538 171.628 6.67789C171.904 7.3516 172.041 8.07181 172.033 8.79714C172.064 10.343 171.343 11.8116 170.089 12.7553C169.439 13.2439 168.703 13.6134 167.917 13.8459V13.8455Z" fill="#1D5242"/>
<path d="M215.687 3.63179V1.97461H197.492V27.5166H215.687V25.8607H201.893V14.4192H211.129V12.762H201.893V3.63179H215.687Z" fill="#1D5242"/>
<path d="M90.3969 14.4427L101.937 0L87.1403 11.264L72.3438 0L83.8842 14.4427L72.3438 28.885L87.1403 17.6209L101.937 28.885L90.3969 14.4427Z" fill="#B77C3C"/>
<path d="M88.5103 15.7809L99.6022 14.4425L88.5103 13.1036L87.139 2.27734L85.7677 13.1036L74.6758 14.4425L85.7677 15.7809L87.139 26.6072L88.5103 15.7809Z" fill="#B77C3C"/>
<path d="M0 47.7236V40.204C0 40.1271 0.0376015 40.0898 0.112795 40.0898H3.17781C4.11817 40.0898 4.83425 40.2722 5.32738 40.6381C5.82007 41.0028 6.06751 41.5222 6.06751 42.1955C6.06751 42.584 5.9521 42.9319 5.71997 43.2368C5.48914 43.5437 5.14202 43.7491 4.67905 43.8532C5.3112 43.954 5.77766 44.1698 6.07844 44.5035C6.37921 44.836 6.53004 45.2282 6.53004 45.677C6.53004 46.3678 6.28566 46.9006 5.79647 47.2724C5.30727 47.6454 4.58856 47.8315 3.64077 47.8315H0.112795C0.0376015 47.8315 0 47.7955 0 47.7236ZM1.03828 43.5174H3.2906C3.82482 43.5174 4.24756 43.4057 4.5597 43.1803C4.87184 42.9562 5.02879 42.6262 5.02879 42.193C5.02879 41.7597 4.86704 41.4302 4.54353 41.2043C4.22002 40.9802 3.76493 40.8673 3.17781 40.8673H1.03828V43.5174ZM5.49176 45.677C5.49176 44.7569 4.87491 44.2948 3.64077 44.2948H1.03872V47.0587H3.64077C4.87491 47.0587 5.49176 46.5991 5.49176 45.6765V45.677Z" fill="#1D5242"/>
<path d="M28.6048 40.0903C28.6826 40.0903 28.7228 40.1179 28.7228 40.1706C28.7228 40.186 28.7154 40.1969 28.7001 40.204L25.5398 45.2353V47.7236C25.5398 47.7955 25.5022 47.8315 25.427 47.8315H24.6195C24.5417 47.8315 24.5015 47.7955 24.5015 47.7236V45.2353L21.346 40.204C21.3386 40.1969 21.3359 40.186 21.3359 40.1706V40.1392C21.3587 40.1057 21.391 40.0898 21.4361 40.0898H22.2837C22.3838 40.0898 22.4616 40.1271 22.5145 40.204L25.0204 44.1928L27.5311 40.204C27.5836 40.1271 27.6614 40.0898 27.7632 40.0898H28.6048V40.0903Z" fill="#1D5242"/>
<path d="M61.3164 47.7236V40.204C61.3164 40.1321 61.354 40.0936 61.4292 40.0898H64.0881C65.2881 40.0898 66.2525 40.434 66.9826 41.124C67.7127 41.8128 68.0786 42.7592 68.0786 43.9611C68.0786 45.163 67.7135 46.1085 66.9861 46.7973C66.2573 47.4869 65.2916 47.8315 64.0881 47.8315H61.4292C61.354 47.8315 61.3164 47.7955 61.3164 47.7236ZM62.3547 47.0591H64.0876C64.9642 47.0591 65.6754 46.7965 66.221 46.2687C66.7666 45.7422 67.0399 44.9731 67.0399 43.964C67.0399 42.9549 66.7679 42.1863 66.2237 41.6581C65.6807 41.1316 64.9681 40.8677 64.0881 40.8677H62.3551V47.0591H62.3547Z" fill="#1D5242"/>
<path d="M83.6797 47.7236V40.204C83.6797 40.1271 83.7173 40.0898 83.7925 40.0898H84.6052C84.6804 40.0898 84.718 40.1271 84.718 40.204V47.7236C84.718 47.7955 84.6804 47.8315 84.6052 47.8315H83.7925C83.7173 47.8315 83.6797 47.7955 83.6797 47.7236Z" fill="#1D5242"/>
<path d="M100.1 47.7232L103.164 40.4244C103.258 40.2048 103.431 40.0932 103.683 40.0898H104.033C104.289 40.0898 104.462 40.2015 104.552 40.4244L107.617 47.7232C107.627 47.7449 107.633 47.7617 107.633 47.7713C107.633 47.8123 107.596 47.8311 107.521 47.8311H106.692C106.615 47.8311 106.558 47.7951 106.516 47.7232L105.709 45.8396H102.007L101.2 47.7232C101.162 47.7951 101.103 47.8311 101.026 47.8311H100.195C100.124 47.8311 100.087 47.8119 100.087 47.7713C100.083 47.7617 100.087 47.7449 100.1 47.7232ZM102.3 45.0672H105.421L103.858 41.3637L102.3 45.0672Z" fill="#1D5242"/>
<path d="M122.203 45.8292C122.203 45.7644 122.243 45.7334 122.321 45.7334H123.05C123.118 45.7334 123.164 45.7694 123.192 45.8413C123.514 46.7626 124.338 47.2235 125.662 47.2235C126.354 47.2235 126.885 47.1047 127.251 46.8697C127.619 46.6334 127.802 46.3419 127.802 45.9927C127.802 45.6435 127.686 45.3617 127.454 45.1471C127.223 44.9334 126.861 44.7595 126.368 44.6265L124.343 44.0757C123.033 43.7156 122.379 43.0344 122.379 42.029C122.379 41.4114 122.653 40.9062 123.205 40.5152C123.756 40.1254 124.494 39.9297 125.42 39.9297C126.345 39.9297 127.093 40.1191 127.663 40.4997C128.233 40.8786 128.592 41.4005 128.738 42.0629C128.753 42.1528 128.713 42.1972 128.619 42.1972H127.891C127.823 42.1972 127.776 42.1587 127.751 42.0842C127.426 41.163 126.657 40.7021 125.442 40.7021C124.803 40.7021 124.305 40.8196 123.95 41.0546C123.593 41.2909 123.417 41.5862 123.417 41.94C123.417 42.2938 123.532 42.5748 123.763 42.7797C123.995 42.985 124.36 43.1578 124.862 43.2979L126.887 43.8545C128.189 44.207 128.839 44.8887 128.839 45.8999C128.839 46.5259 128.556 47.0324 127.99 47.42C127.423 47.8064 126.647 48.0005 125.662 48.0005C124.676 48.0005 123.891 47.811 123.304 47.433C123.011 47.2456 122.754 47.0073 122.533 46.7179C122.313 46.4276 122.203 46.1311 122.203 45.8288V45.8292Z" fill="#1D5242"/>
<path d="M144.441 47.7236V40.204C144.441 40.1321 144.479 40.0936 144.554 40.0898H147.908C148.87 40.0898 149.612 40.3119 150.134 40.7531C150.654 41.1968 150.915 41.8413 150.915 42.6894C150.915 43.5375 150.654 44.1819 150.134 44.6244C149.612 45.0672 148.87 45.2876 147.908 45.2876H145.48V47.7228C145.48 47.7947 145.442 47.8307 145.367 47.8307H144.554C144.479 47.8307 144.441 47.7947 144.441 47.7228V47.7236ZM145.48 44.5169H147.908C148.517 44.5169 148.996 44.3659 149.346 44.0635C149.696 43.7612 149.872 43.3041 149.872 42.6923C149.872 42.0805 149.696 41.6234 149.346 41.321C148.996 41.0187 148.517 40.8677 147.908 40.8677H145.48V44.5169Z" fill="#1D5242"/>
<path d="M165.377 47.7252L168.441 40.4263C168.535 40.2068 168.708 40.0951 168.96 40.0918H169.31C169.566 40.0918 169.739 40.2035 169.83 40.4263L172.895 47.7252C172.905 47.7469 172.911 47.7636 172.911 47.7732C172.911 47.8142 172.873 47.833 172.798 47.833H171.969C171.893 47.833 171.835 47.7971 171.793 47.7252L170.986 45.8416H167.284L166.477 47.7252C166.44 47.7971 166.381 47.833 166.303 47.833H165.473C165.401 47.833 165.365 47.8138 165.365 47.7732C165.361 47.7636 165.365 47.7469 165.377 47.7252ZM167.577 45.0692H170.699L169.135 41.3656L167.577 45.0692Z" fill="#1D5242"/>
<path d="M188.273 47.7236V40.204C188.273 40.1321 188.311 40.0936 188.386 40.0898H191.627C192.575 40.0898 193.311 40.2985 193.839 40.7159C194.365 41.1332 194.629 41.7187 194.629 42.4711C194.629 43.011 194.426 43.4764 194.022 43.8687C193.617 44.2609 193.05 44.5127 192.32 44.6244C192.535 44.6745 192.728 44.7649 192.901 44.8941C193.074 45.0233 193.199 45.1362 193.277 45.2312C193.354 45.3269 193.458 45.4758 193.591 45.6761L194.978 47.6964C194.997 47.7253 195.007 47.7541 195.007 47.7851C195.007 47.8152 194.965 47.8307 194.883 47.8307H193.934C193.874 47.8307 193.818 47.7947 193.765 47.7228L192.377 45.6761C192.008 45.1233 191.469 44.846 190.757 44.846H189.312V47.7228C189.312 47.7947 189.274 47.8307 189.199 47.8307H188.386C188.311 47.8307 188.273 47.7947 188.273 47.7228V47.7236ZM189.312 44.0744H191.627C192.22 44.0744 192.697 43.9364 193.054 43.6592C193.412 43.3819 193.591 42.985 193.591 42.4677C193.591 41.9504 193.411 41.556 193.052 41.28C192.692 41.0053 192.216 40.8673 191.627 40.8673H189.312V44.074V44.0744Z" fill="#1D5242"/>
<path d="M210.383 47.7236V40.204C210.383 40.1321 210.42 40.0936 210.496 40.0898H211.308C211.384 40.0898 211.421 40.1271 211.421 40.204V43.5776H212.292C212.983 43.5776 213.52 43.3003 213.904 42.7462L215.642 40.204C215.695 40.1321 215.752 40.0936 215.813 40.0898H216.761C216.884 40.0898 216.917 40.1354 216.856 40.2253L215.062 42.8537C214.614 43.5086 214.151 43.8783 213.673 43.9611C214.226 44.0439 214.729 44.4123 215.181 45.0672L216.969 47.6969C216.988 47.7257 216.998 47.7546 217.001 47.7855C217.002 47.8156 216.962 47.8311 216.879 47.8311H215.931C215.871 47.8311 215.813 47.7951 215.755 47.7232L214.023 45.1751C213.639 44.621 213.099 44.3463 212.404 44.3496H211.421V47.7232C211.421 47.7951 211.384 47.8311 211.308 47.8311H210.496C210.42 47.8311 210.383 47.7951 210.383 47.7232V47.7236Z" fill="#1D5242"/>
</g>
<defs>
<clipPath id="clip0_1604_3265">
<rect width="217" height="48" fill="white"/>
</clipPath>
</defs>
</svg>
